# xmcd
#
# Track frame offsets:
#	150
#	23187
#	41802
#	61218
#	81896
#	105005
#	119473
#	136757
#	150719
#	161614
#	173224
#	190987
#	205854
#	219157
#	235552
#	249634
#	261994
#	280909
#	293062
#	312062
#	326019
#
# Disc length: 4532 seconds
#
# Revision: 1
# Processed by: cddbd v1.5PL3 Copyright (c) Steve Scherf et al.
# Submitted via: audiograbber 1.83.01
#
DISCID=2111b215
DTITLE=Norah Jones - Feels Like Home-B
DYEAR=2004
DGENRE=Blues
TTITLE0=New York City
TTITLE1=Strange Transmissions
TTITLE2=Deceptively Yours
TTITLE3=All Your Love
TTITLE4=Heart Of Mine
TTITLE5=Things You Don't Have To Do
TTITLE6=New York City(Radio Ed)
TTITLE7=Don't Know Why
TTITLE8=Seven years
TTITLE9=Turn Me On
TTITLE10=Shoot The Moon
TTITLE11=Come Away With Me
TTITLE12=Feelin The Same Away
TTITLE13=Cold Cold Heart
TTITLE14=The Nearness Of You
TTITLE15=The Long Day Is Over
TTITLE16=Nightingale
TTITLE17=Painter Song
TTITLE18=I've Got To See You Again
TTITLE19=Lone Star
TTITLE20=One Flight Down
EXTD=Two CD Set HDCD (from China)
EXTT0=
EXTT1=
EXTT2=
EXTT3=
EXTT4=
EXTT5=
EXTT6=
EXTT7=
EXTT8=
EXTT9=
EXTT10=
EXTT11=
EXTT12=
EXTT13=
EXTT14=
EXTT15=
EXTT16=
EXTT17=
EXTT18=
EXTT19=
EXTT20=
PLAYORDER=
